<svg width="220" height="51" viewBox="0 0 220 51" fill="none" xmlns="http://www.w3.org/2000/svg">
<path d="M21.8154 29.7414V30.0074C21.6194 30.0074 21.4398 30.1257 21.2765 30.3622C21.1214 30.5913 21.0479 30.8906 21.0479 31.2638V48.1723C21.0479 48.5381 21.1214 48.8374 21.2765 49.0739C21.4398 49.303 21.6194 49.4138 21.8154 49.4138V49.6799H18.6802V49.4138C18.8762 49.4138 19.0476 49.303 19.2027 49.0739C19.3538 48.8374 19.4313 48.5381 19.4313 48.1723V31.5002L11.7078 49.3843C11.5976 49.6023 11.471 49.5912 11.3322 49.3547L3.41273 34.5302V47.8767C3.41273 48.1649 3.46172 48.4051 3.55969 48.6009C3.65766 48.7894 3.75972 48.9482 3.86994 49.0739C3.95567 49.1441 4.03731 49.2069 4.11487 49.266C4.18835 49.3251 4.26591 49.3769 4.34348 49.4138V49.6799H1.99212V49.4138C2.09009 49.3769 2.17174 49.3251 2.23705 49.266C2.31053 49.2069 2.3881 49.1441 2.46566 49.0739C2.58404 48.9482 2.69834 48.7894 2.80856 48.6009C2.9147 48.4051 2.97185 48.1649 2.97185 47.8767V34.2346C2.97185 33.8503 2.92287 33.5695 2.82489 33.3921L1.5839 31.1603C1.31039 30.6578 1.02055 30.3437 0.71847 30.2144C0.412303 30.0776 0.175536 30.0074 0 30.0074V29.7414H2.2044C2.42075 29.7414 2.56771 29.7783 2.64528 29.8449C2.71875 29.904 2.77999 29.9705 2.82489 30.037L11.9201 47.182C11.9935 47.3113 12.067 47.3113 12.1323 47.182L19.4967 30.17C19.5293 30.1035 19.5946 30.0148 19.6926 29.904C19.7906 29.7968 19.9294 29.7414 20.1172 29.7414H21.8154Z" fill="white"/>
<path d="M25.4136 39.4519C25.4136 40.6565 25.6789 41.8315 26.2137 42.9843C26.7444 44.1372 27.4751 45.1829 28.4018 46.1177C29.3244 47.0452 30.398 47.7842 31.6186 48.3348C32.8473 48.8779 34.1577 49.1477 35.5538 49.1477C37.35 49.1477 38.9706 48.8225 40.4198 48.1722C41.8649 47.5145 43.0079 46.5094 43.8489 45.157C44.698 43.7973 45.1225 42.0754 45.1225 39.984C45.1225 38.7424 44.8613 37.5452 44.3388 36.3924C43.8244 35.2395 43.1018 34.2049 42.167 33.2885C41.2404 32.3648 40.1626 31.6295 38.9339 31.0863C37.7133 30.5468 36.407 30.2734 35.015 30.2734C33.2188 30.2734 31.5941 30.6059 30.149 31.2637C28.6998 31.9251 27.5445 32.9301 26.6873 34.2788C25.8382 35.6201 25.4136 37.3457 25.4136 39.4519ZM46.6411 39.984C46.6411 41.2551 46.3309 42.4892 45.7104 43.679C45.098 44.8614 44.2489 45.933 43.1631 46.8863C42.0854 47.8322 40.8444 48.5823 39.4401 49.1329C38.0358 49.6761 36.5417 49.9458 34.966 49.9458C33.3984 49.9458 31.9451 49.6798 30.6062 49.1477C29.2672 48.6156 28.0915 47.8766 27.0791 46.9307C26.0668 45.9847 25.283 44.8762 24.7278 43.6051C24.1726 42.3266 23.895 40.941 23.895 39.4519C23.895 38.1734 24.1971 36.9392 24.8094 35.7568C25.4299 34.567 26.2831 33.4955 27.3731 32.5495C28.4589 31.6036 29.7081 30.8609 31.1124 30.3177C32.5248 29.7672 34.023 29.49 35.6028 29.49C37.1704 29.49 38.6155 29.7487 39.9463 30.2586C41.2853 30.7722 42.4528 31.5001 43.457 32.4461C44.4694 33.392 45.2532 34.5079 45.8083 35.7864C46.3635 37.0575 46.6411 38.4579 46.6411 39.984Z" fill="white"/>
<path d="M52.7478 30.1405H51.6701C51.4742 30.1405 51.3762 30.2291 51.3762 30.4065V49.0443C51.3762 49.2032 51.4619 49.2808 51.6375 49.2808H55.7687C57.9241 49.2808 59.7447 48.8965 61.2388 48.1279C62.7411 47.3594 63.8882 46.2767 64.6842 44.8763C65.4762 43.4796 65.8762 41.8464 65.8762 39.9841C65.8762 39.1194 65.7129 38.1957 65.3864 37.2202C65.0598 36.2447 64.574 35.3061 63.9331 34.3972C63.2881 33.4919 62.4553 32.7344 61.4348 32.121C60.553 31.552 59.6794 31.1233 58.8222 30.8351C57.9608 30.5506 57.0464 30.3622 56.0789 30.2735C55.1073 30.1848 53.997 30.1405 52.7478 30.1405ZM49.7596 48.1723V31.2638C49.7596 30.8906 49.678 30.5913 49.5147 30.3622C49.3596 30.1257 49.1881 30.0074 48.9922 30.0074V29.7414H54.9849C56.7811 29.7414 58.4344 29.9853 59.9489 30.4656C61.4715 30.9497 62.7942 31.6443 63.9168 32.5496C65.0475 33.4475 65.9252 34.5413 66.5457 35.8308C67.1744 37.113 67.4928 38.5652 67.4928 40.191C67.4928 41.4732 67.2193 42.6851 66.6763 43.8269C66.1416 44.9724 65.3578 45.9811 64.325 46.8568C63.3004 47.7363 62.0716 48.4235 60.6347 48.9261C59.1977 49.4286 57.5648 49.6799 55.736 49.6799H48.9922V49.4138C49.1881 49.4138 49.3596 49.303 49.5147 49.0739C49.678 48.8374 49.7596 48.5381 49.7596 48.1723Z" fill="white"/>
<path d="M69.5391 29.7413H76.1686C76.7564 29.7413 77.1973 29.7043 77.4912 29.6231C77.7851 29.5344 78.0301 29.49 78.226 29.49C78.2995 29.49 78.3771 29.5713 78.4546 29.7265C78.5403 29.8854 78.6097 30.0073 78.6669 30.096C78.7404 30.2143 78.8547 30.3621 79.0098 30.5394C79.1731 30.7168 79.3282 30.8942 79.4833 31.0715L80.1038 31.6923L79.9079 31.8696C79.5895 31.6627 79.2221 31.4225 78.7975 31.1454C78.3811 30.872 77.8586 30.6355 77.23 30.436C76.5972 30.2401 75.7971 30.1404 74.8296 30.1404H72.07C71.9721 30.1404 71.9231 30.1958 71.9231 30.3029V36.9245H78.5526C78.8669 36.9245 79.1282 36.8949 79.3364 36.8358C79.5527 36.7693 79.7324 36.688 79.8752 36.5993C80.0059 36.5328 80.1202 36.4182 80.2181 36.2594H80.5121V37.9886H80.2181C80.1406 37.8408 80.0263 37.7337 79.8752 37.6635C79.7324 37.5748 79.5527 37.4972 79.3364 37.427C79.1282 37.3605 78.8669 37.3235 78.5526 37.3235H71.9231V49.1181C71.9231 49.229 71.9761 49.2807 72.0864 49.2807H75.5807C76.6013 49.2807 77.4137 49.1883 78.0137 48.9999C78.6097 48.8151 79.0914 48.586 79.4507 48.32C79.8099 48.0466 80.1447 47.7657 80.4631 47.4775L80.659 47.6549L80.2508 48.1722C80.1283 48.3311 79.9936 48.5084 79.8426 48.7043C79.6997 48.8927 79.5731 49.0849 79.467 49.2807C79.3445 49.4802 79.2547 49.6354 79.1894 49.7537C79.1323 49.8793 79.067 49.9458 78.9935 49.9458C78.9159 49.9458 78.7812 49.9015 78.5853 49.8128C78.3893 49.7241 78.0137 49.6798 77.4586 49.6798H69.5391V49.4137C69.735 49.4137 69.9065 49.3029 70.0616 49.0738C70.2249 48.8373 70.3065 48.538 70.3065 48.1722V31.2637C70.3065 30.8905 70.2249 30.5912 70.0616 30.3621C69.9065 30.1256 69.735 30.0073 69.5391 30.0073V29.7413Z" fill="white"/>
<path d="M86.9477 30.1405H85.2495V36.9985H88.1724C89.5848 36.9985 90.6952 36.7324 91.5034 36.2003C92.3199 35.6609 92.7281 34.8479 92.7281 33.7616C92.7281 33.4586 92.6465 33.1039 92.4832 32.6974C92.3281 32.2947 92.0464 31.8993 91.6341 31.515C91.2299 31.1233 90.6462 30.7982 89.8869 30.5395C89.1358 30.2735 88.156 30.1405 86.9477 30.1405ZM86.0006 49.6799H82.8655V49.4138C83.0614 49.4138 83.2329 49.303 83.388 49.0739C83.5513 48.8374 83.6329 48.5381 83.6329 48.1723V31.2638C83.6329 30.8906 83.5513 30.5913 83.388 30.3622C83.2329 30.1257 83.0614 30.0074 82.8655 30.0074V29.7414H87.5682C88.85 29.7414 90.0053 29.8892 91.0299 30.1848C92.0627 30.4804 92.8751 30.9238 93.4629 31.515C94.0507 32.1062 94.3447 32.8748 94.3447 33.8207C94.3447 34.6004 94.0875 35.2618 93.5772 35.8013C93.0629 36.3334 92.377 36.7324 91.5198 36.9985C90.6584 37.2645 89.6909 37.3975 88.6132 37.3975H87.5355C87.3927 37.3975 87.36 37.464 87.4376 37.5897L95.8469 48.1132C96.2715 48.6268 96.5981 48.9704 96.8267 49.1478C97.0634 49.3251 97.2349 49.4138 97.3329 49.4138V49.6799H93.9691V49.4138C94.1732 49.4138 94.2998 49.3177 94.3447 49.1182C94.3977 48.9113 94.3202 48.6822 94.1161 48.4235L85.4128 37.5158C85.3026 37.368 85.2495 37.3754 85.2495 37.5305V48.1723C85.2495 48.5381 85.323 48.8374 85.4781 49.0739C85.6291 49.303 85.8047 49.4138 86.0006 49.4138V49.6799Z" fill="white"/>
<path d="M115.395 31.5298V49.9459C115.395 50.0531 115.35 50.1122 115.264 50.1233C115.174 50.1307 115.085 50.0715 114.987 49.9459L100.536 33.2591V47.9506C100.536 48.2388 100.576 48.4753 100.666 48.66C100.752 48.8485 100.854 48.9926 100.977 49.0886C101.128 49.2365 101.287 49.3473 101.45 49.4138V49.6799H99.0987V49.4138C99.2946 49.3251 99.4579 49.218 99.5886 49.0886C99.7069 48.9704 99.8212 48.8226 99.9315 48.6452C100.038 48.4679 100.095 48.2388 100.095 47.9506V33.0226C100.095 32.7566 100.046 32.5792 99.9478 32.4905L98.3966 30.8647C98.1761 30.6504 97.9312 30.4508 97.6618 30.2735C97.4005 30.0961 97.1964 30.0074 97.0413 30.0074V29.7414H99.1314C99.2824 29.7414 99.3845 29.7525 99.4416 29.771C99.5069 29.7931 99.5886 29.8449 99.6865 29.9335L114.954 47.5219V31.5298C114.954 31.2859 114.897 31.0642 114.791 30.8647C114.681 30.6689 114.566 30.51 114.448 30.3917C114.37 30.3141 114.293 30.2439 114.219 30.1848C114.154 30.1257 114.072 30.0666 113.974 30.0074V29.7414H116.326V30.0074C116.248 30.0666 116.171 30.1257 116.097 30.1848C116.019 30.2439 115.942 30.3141 115.868 30.3917C115.746 30.51 115.64 30.6689 115.542 30.8647C115.444 31.0642 115.395 31.2859 115.395 31.5298Z" fill="white"/>
<path d="M143.425 29.7414V30.0074C143.229 30.0074 143.05 30.1257 142.886 30.3622C142.731 30.5913 142.658 30.8906 142.658 31.2638V48.1723C142.658 48.5381 142.731 48.8374 142.886 49.0739C143.05 49.303 143.229 49.4138 143.425 49.4138V49.6799H140.29V49.4138C140.486 49.4138 140.657 49.303 140.813 49.0739C140.964 48.8374 141.041 48.5381 141.041 48.1723V31.5002L133.318 49.3843C133.207 49.6023 133.081 49.5912 132.942 49.3547L125.023 34.5302V47.8767C125.023 48.1649 125.072 48.4051 125.17 48.6009C125.268 48.7894 125.37 48.9482 125.48 49.0739C125.566 49.1441 125.647 49.2069 125.725 49.266C125.798 49.3251 125.876 49.3769 125.953 49.4138V49.6799H123.602V49.4138C123.7 49.3769 123.782 49.3251 123.847 49.266C123.92 49.2069 123.998 49.1441 124.076 49.0739C124.194 48.9482 124.308 48.7894 124.418 48.6009C124.525 48.4051 124.582 48.1649 124.582 47.8767V34.2346C124.582 33.8503 124.533 33.5695 124.435 33.3921L123.194 31.1603C122.92 30.6578 122.63 30.3437 122.328 30.2144C122.022 30.0776 121.785 30.0074 121.61 30.0074V29.7414H123.814C124.031 29.7414 124.178 29.7783 124.255 29.8449C124.329 29.904 124.39 29.9705 124.435 30.037L133.53 47.182C133.603 47.3113 133.677 47.3113 133.742 47.182L141.107 30.17C141.139 30.1035 141.204 30.0148 141.302 29.904C141.4 29.7968 141.539 29.7414 141.727 29.7414H143.425Z" fill="white"/>
<path d="M145.586 48.4235L151.4 36.0673C151.465 35.9712 151.465 35.8567 151.4 35.7274L149.293 31.1603C149.097 30.7464 148.885 30.4508 148.656 30.2735C148.436 30.0961 148.256 30.0074 148.117 30.0074V29.7414H150.077C150.273 29.7414 150.403 29.8153 150.469 29.9631L159.074 48.5566C159.278 48.9519 159.458 49.1921 159.613 49.2808C159.776 49.3695 159.915 49.4138 160.037 49.4138V49.6799H156.951V49.4138C157.025 49.4138 157.123 49.399 157.245 49.3695C157.364 49.3325 157.445 49.2438 157.49 49.1034C157.543 48.9556 157.494 48.7302 157.343 48.4235L155.808 45.3493H147.53L146.142 48.4531C145.986 48.8078 146.015 49.0591 146.223 49.2069C146.427 49.3473 146.591 49.4138 146.713 49.4138V49.6799H144.476V49.4138C144.594 49.4138 144.758 49.3399 144.966 49.1921C145.182 49.0369 145.39 48.7783 145.586 48.4235ZM151.726 36.4959L147.856 44.6842H155.547L151.726 36.4959Z" fill="white"/>
<path d="M165.878 30.1405H164.18V36.9985H167.103C168.515 36.9985 169.626 36.7324 170.434 36.2003C171.25 35.6609 171.659 34.8479 171.659 33.7616C171.659 33.4586 171.577 33.1039 171.414 32.6974C171.258 32.2947 170.977 31.8993 170.564 31.515C170.16 31.1233 169.577 30.7982 168.817 30.5395C168.066 30.2735 167.086 30.1405 165.878 30.1405ZM164.931 49.6799H161.796V49.4138C161.992 49.4138 162.163 49.303 162.318 49.0739C162.482 48.8374 162.563 48.5381 162.563 48.1723V31.2638C162.563 30.8906 162.482 30.5913 162.318 30.3622C162.163 30.1257 161.992 30.0074 161.796 30.0074V29.7414H166.499C167.78 29.7414 168.936 29.8892 169.96 30.1848C170.993 30.4804 171.805 30.9238 172.393 31.515C172.981 32.1062 173.275 32.8748 173.275 33.8207C173.275 34.6004 173.018 35.2618 172.508 35.8013C171.993 36.3334 171.307 36.7324 170.45 36.9985C169.589 37.2645 168.621 37.3975 167.544 37.3975H166.466C166.323 37.3975 166.29 37.464 166.368 37.5897L174.777 48.1132C175.202 48.6268 175.528 48.9704 175.757 49.1478C175.994 49.3251 176.165 49.4138 176.263 49.4138V49.6799H172.9V49.4138C173.104 49.4138 173.23 49.3177 173.275 49.1182C173.328 48.9113 173.251 48.6822 173.046 48.4235L164.343 37.5158C164.233 37.368 164.18 37.3754 164.18 37.5305V48.1723C164.18 48.5381 164.253 48.8374 164.409 49.0739C164.56 49.303 164.735 49.4138 164.931 49.4138V49.6799Z" fill="white"/>
<path d="M193.917 32.2245L186.308 50.0198C186.251 50.1454 186.177 50.2119 186.079 50.2119C185.981 50.2119 185.908 50.1417 185.867 50.005L177.768 30.9386C177.494 30.4878 177.266 30.2218 177.082 30.1405C176.907 30.0518 176.78 30.0074 176.707 30.0074V29.7414H179.94V30.0074C179.776 30.0074 179.633 30.1257 179.515 30.3622C179.405 30.5913 179.45 30.9016 179.646 31.2933L186.634 47.7437C186.688 47.8619 186.741 47.8619 186.798 47.7437L193.591 31.8254C193.721 31.5002 193.77 31.2268 193.738 30.9977C193.713 30.7723 193.656 30.5839 193.558 30.4361C193.435 30.2587 193.28 30.1183 193.084 30.0074V29.7414H195.517V30.0074C195.244 30.1774 194.962 30.4619 194.668 30.8647C194.374 31.2601 194.121 31.7145 193.917 32.2245Z" fill="white"/>
<path d="M196.697 29.7413H203.326C203.914 29.7413 204.355 29.7043 204.649 29.6231C204.943 29.5344 205.188 29.49 205.383 29.49C205.457 29.49 205.535 29.5713 205.612 29.7265C205.698 29.8854 205.767 30.0073 205.824 30.096C205.898 30.2143 206.012 30.3621 206.167 30.5394C206.331 30.7168 206.486 30.8942 206.641 31.0715L207.261 31.6923L207.065 31.8696C206.747 31.6627 206.38 31.4225 205.955 31.1454C205.539 30.872 205.016 30.6355 204.387 30.436C203.755 30.2401 202.955 30.1404 201.987 30.1404H199.228C199.13 30.1404 199.081 30.1958 199.081 30.3029V36.9245H205.71C206.024 36.9245 206.286 36.8949 206.494 36.8358C206.71 36.7693 206.89 36.688 207.033 36.5993C207.163 36.5328 207.278 36.4182 207.376 36.2594H207.67V37.9886H207.376C207.298 37.8408 207.184 37.7337 207.033 37.6635C206.89 37.5748 206.71 37.4972 206.494 37.427C206.286 37.3605 206.024 37.3235 205.71 37.3235H199.081V49.1181C199.081 49.229 199.134 49.2807 199.244 49.2807H202.738C203.759 49.2807 204.571 49.1883 205.171 48.9999C205.767 48.8151 206.249 48.586 206.608 48.32C206.967 48.0466 207.302 47.7657 207.621 47.4775L207.816 47.6549L207.408 48.1722C207.286 48.3311 207.151 48.5084 207 48.7043C206.857 48.8927 206.731 49.0849 206.624 49.2807C206.502 49.4802 206.412 49.6354 206.347 49.7537C206.29 49.8793 206.224 49.9458 206.151 49.9458C206.073 49.9458 205.939 49.9015 205.743 49.8128C205.547 49.7241 205.171 49.6798 204.616 49.6798H196.697V49.4137C196.892 49.4137 197.064 49.3029 197.219 49.0738C197.382 48.8373 197.464 48.538 197.464 48.1722V31.2637C197.464 30.8905 197.382 30.5912 197.219 30.3621C197.064 30.1256 196.892 30.0073 196.697 30.0073V29.7413Z" fill="white"/>
<path d="M210.023 29.7414H213.158V30.0074C212.962 30.0074 212.787 30.1257 212.636 30.3622C212.48 30.5913 212.407 30.8906 212.407 31.2638V49.1182C212.407 49.2291 212.46 49.2808 212.57 49.2808H220V49.5468C219.779 49.5468 219.575 49.5838 219.379 49.6503C219.192 49.7094 218.992 49.7981 218.775 49.9163C218.555 50.042 218.383 50.1713 218.253 50.3006C218.13 50.4373 218.024 50.5075 217.926 50.5075C217.836 50.5075 217.751 50.4373 217.665 50.3006C217.575 50.1713 217.42 50.0346 217.191 49.8868C216.971 49.7464 216.62 49.6799 216.13 49.6799H210.023V49.4138C210.219 49.4138 210.39 49.303 210.545 49.0739C210.709 48.8374 210.79 48.5381 210.79 48.1723V31.2638C210.79 30.8906 210.709 30.5913 210.545 30.3622C210.39 30.1257 210.219 30.0074 210.023 30.0074V29.7414Z" fill="white"/>
<path d="M100.146 7.75221C100.383 7.17208 100.652 6.59196 100.946 6.00814C101.24 5.41694 101.538 4.84051 101.844 4.27886C101.44 4.33059 100.967 4.38232 100.424 4.44144C99.8769 4.50057 99.3503 4.56708 98.84 4.63359C98.3297 4.69271 97.9092 4.74444 97.5827 4.78139C97.2479 4.82203 97.0683 4.8479 97.0438 4.85529C97.0438 4.85529 97.0765 4.88116 97.1418 4.92919C97.2724 5.01787 97.3051 5.12133 97.2398 5.23957C97.1663 5.35782 97.0356 5.40955 96.8479 5.38738C96.7499 5.38738 96.6519 5.38368 96.5539 5.3726C96.4805 5.35412 96.4029 5.34304 96.3253 5.34304C96.2396 5.34304 96.0804 5.35782 95.8518 5.38738C95.3619 5.45758 95.0149 5.50192 94.8068 5.5204C94.5904 5.53148 94.3945 5.54626 94.2189 5.56474C94.0148 5.56474 93.8556 5.56104 93.7454 5.54996C93.6392 5.53148 93.5454 5.49084 93.4678 5.43172C93.3821 5.39477 93.3372 5.33565 93.3372 5.25435C93.3372 5.12872 93.4351 5.01787 93.6311 4.92919C94.3945 4.63359 97.2193 4.26039 102.106 3.8059C102.616 2.88953 103.077 2.13204 103.494 1.52975C103.624 1.345 103.759 1.15655 103.902 0.968102C104.053 0.783349 104.212 0.598597 104.375 0.421235C104.604 0.155192 104.792 0.0184755 104.947 0.00739009C105.131 -0.0221703 105.265 0.0369505 105.355 0.184752C105.388 0.254958 105.376 0.362114 105.323 0.509916C105.147 0.827691 104.971 1.12699 104.8 1.41151C104.743 1.50019 104.637 1.66277 104.473 1.89925C104.31 2.12835 104.147 2.35744 103.984 2.59392C103.82 2.82301 103.665 3.02255 103.526 3.19991C103.383 3.37727 103.249 3.55094 103.118 3.71722C104.751 3.56941 106.384 3.43639 108.017 3.31815C109.65 3.19991 111.291 3.10384 112.948 3.02255C113.328 3.01516 113.805 3.00407 114.385 2.99299C114.961 2.97451 115.553 2.95973 116.165 2.94865C116.785 2.93017 117.345 2.91539 117.847 2.90431C118.357 2.88583 118.72 2.88213 118.941 2.88953C119.125 2.88953 119.386 2.88953 119.725 2.88953C120.072 2.88953 120.386 2.88953 120.672 2.88953C120.966 2.88953 121.231 2.88953 121.472 2.88953C121.721 2.88953 121.88 2.88953 121.945 2.88953C122.182 2.9117 122.354 2.97821 122.452 3.09645C122.505 3.15557 122.517 3.22208 122.484 3.28859C122.46 3.34771 122.419 3.39205 122.354 3.42161C122.223 3.5029 122.084 3.49551 121.945 3.40683C121.888 3.37727 121.823 3.3588 121.749 3.34771C121.684 3.34032 121.529 3.32924 121.292 3.31815C120.476 3.27012 119.5 3.24425 118.369 3.24425C117.247 3.23686 116.026 3.25534 114.712 3.30337C113.405 3.34402 112.083 3.40683 110.744 3.49551C109.393 3.56572 108.049 3.66549 106.71 3.79112C105.38 3.92044 104.053 4.04977 102.726 4.1754C102.538 4.39341 102.359 4.63359 102.187 4.89963C102.012 5.16567 101.812 5.50562 101.583 5.91946C101.191 6.66956 100.808 7.45291 100.44 8.26951C100.081 9.08981 99.7585 9.87316 99.4768 10.6196C99.2033 11.3697 99.0033 12.02 98.8726 12.5705C98.5706 13.8416 98.5624 14.8134 98.8563 15.4822C99.1584 16.1991 99.7136 16.4947 100.522 16.3691C100.869 16.3099 101.289 16.1806 101.779 15.9848C102.277 15.7963 102.841 15.5044 103.461 15.1127C103.775 14.9058 104.163 14.6324 104.62 14.285C105.086 13.9414 105.559 13.5608 106.041 13.147C106.519 12.7331 106.96 12.3341 107.364 11.9498C107.764 11.5581 108.058 11.2219 108.245 10.9447C108.441 10.6196 108.605 10.4939 108.735 10.5604C108.866 10.6306 108.866 10.7304 108.735 10.856C108.723 10.8856 108.67 10.9595 108.572 11.0777C108.474 11.196 108.364 11.329 108.245 11.4768C108.005 11.7724 107.792 12.02 107.609 12.2158C107.433 12.4154 107.209 12.6297 106.939 12.8661C106.502 13.28 105.996 13.7049 105.421 14.1372C104.853 14.5733 104.286 14.976 103.722 15.3492C103.155 15.7224 102.661 16.0143 102.236 16.2212C101.714 16.4947 101.224 16.6794 100.767 16.7681C100.35 16.8568 99.9708 16.8605 99.6238 16.7829C98.8196 16.5834 98.342 15.9552 98.1868 14.891C98.1787 14.795 98.1787 14.6324 98.1868 14.4033C98.1868 14.1668 98.1991 13.9266 98.2195 13.6791C98.2317 13.4352 98.2644 13.2209 98.3175 13.0435C98.591 11.6172 99.1992 9.85099 100.146 7.75221Z" fill="white"/>
<path d="M106.908 16.5168C106.875 16.4947 106.859 16.4577 106.859 16.3986C106.85 16.3395 106.859 16.2249 106.891 16.0586C107.055 15.2199 107.324 14.3257 107.691 13.3686C108.051 12.4042 108.467 11.4251 108.949 10.4274C109.426 9.42234 109.92 8.43945 110.435 7.47135C110.945 6.49586 111.435 5.5758 111.904 4.70746C112.819 3.00404 113.574 2.00269 114.174 1.70708C114.533 1.51125 114.827 1.54081 115.056 1.79576C115.121 1.86597 115.158 1.98791 115.17 2.16527C115.223 2.56064 115.088 3.12229 114.762 3.85021C114.443 4.57074 113.978 5.35779 113.358 6.21504C112.745 7.07229 112.019 7.92215 111.169 8.75723C110.974 8.95676 110.831 9.05283 110.745 9.05283C110.655 9.05283 110.586 9.02327 110.533 8.96415C110.488 8.90503 110.435 8.87547 110.369 8.87547C110.337 8.88656 110.275 8.96415 110.19 9.11195C110.112 9.25975 110.035 9.42234 109.961 9.5997C109.806 9.8953 109.643 10.2426 109.471 10.6343C109.308 11.0186 109.153 11.3844 109.014 11.728C108.883 12.0643 108.785 12.3008 108.72 12.4375L108.671 12.5705L108.736 12.4818C109.128 11.9904 109.459 11.6061 109.733 11.329C110.014 11.0445 110.324 10.7784 110.663 10.5309C111.316 10.0579 111.823 9.86574 112.182 9.95442C112.549 10.0431 112.708 10.3904 112.655 10.989C112.643 11.1664 112.606 11.3696 112.541 11.595C112.484 11.813 112.427 12.0384 112.361 12.2749C112.304 12.4929 112.247 12.7146 112.182 12.94C112.125 13.158 112.092 13.3539 112.084 13.5312C112.059 13.8786 112.186 14.0485 112.459 14.0485C112.786 14.0485 113.133 13.9451 113.505 13.7381C113.884 13.5238 114.256 13.2578 114.615 12.94C114.974 12.6259 115.293 12.3045 115.578 11.9793C115.872 11.6541 116.105 11.3844 116.28 11.1664C116.464 10.9521 116.558 10.8412 116.558 10.8412C116.623 10.7341 116.721 10.7082 116.852 10.7673C116.958 10.8265 116.987 10.9077 116.934 11.0038C116.934 11.0038 116.836 11.1221 116.64 11.3585C116.452 11.5876 116.203 11.8722 115.889 12.2158C115.57 12.5631 115.223 12.9031 114.843 13.2356C114.46 13.5608 114.064 13.8379 113.651 14.0633C113.235 14.2924 112.835 14.3996 112.443 14.3885C112.137 14.3885 111.925 14.3109 111.806 14.152C111.696 13.9857 111.647 13.7788 111.659 13.5312C111.659 13.3354 111.684 13.1174 111.741 12.8809C111.806 12.6444 111.876 12.4153 111.953 12.1862C112.019 11.9608 112.072 11.7428 112.117 11.5359C112.17 11.329 112.206 11.1442 112.231 10.9743C112.264 10.6602 112.215 10.4828 112.084 10.4422C111.953 10.3941 111.79 10.4274 111.594 10.5456C111.398 10.6565 111.19 10.7821 110.974 10.9299C110.08 11.5618 109.328 12.3303 108.72 13.2356C108.108 14.1335 107.671 15.0388 107.398 15.9552C107.357 16.0808 107.312 16.199 107.267 16.3099C107.226 16.4281 107.202 16.491 107.202 16.502C107.169 16.5316 107.12 16.5464 107.055 16.5464C106.989 16.5538 106.94 16.5464 106.908 16.5168ZM110.5 8.35816C110.606 8.25101 110.704 8.18819 110.794 8.16602C110.88 8.13646 110.974 8.1069 111.072 8.07734C111.169 8.04039 111.3 7.93693 111.463 7.76696C111.79 7.44179 112.133 7.04273 112.492 6.56976C112.86 6.08941 113.198 5.57949 113.505 5.0474C113.819 4.50793 114.068 3.99432 114.256 3.51026C114.439 3.02991 114.525 2.62345 114.517 2.29829C114.517 2.23178 114.501 2.19113 114.468 2.18005C114.443 2.17266 114.394 2.19483 114.321 2.25395C114.035 2.45348 113.684 2.84516 113.26 3.43636C112.843 4.02757 112.41 4.73702 111.953 5.56471C111.843 5.77163 111.7 6.03398 111.529 6.34806C111.353 6.65475 111.19 6.96144 111.039 7.26443C110.884 7.57112 110.749 7.82608 110.631 8.033C110.52 8.23992 110.475 8.35077 110.5 8.35816Z" fill="white"/>
<path d="M119.354 13.2653C118.579 13.5128 117.921 13.572 117.378 13.4426C116.831 13.3059 116.489 13.014 116.35 12.5706C116.207 12.1198 116.342 11.5434 116.758 10.8413C117.125 10.2316 117.566 9.67369 118.081 9.17116C118.591 8.66125 119.032 8.35456 119.403 8.25479C119.652 8.18828 119.877 8.18828 120.073 8.25479C120.342 8.35456 120.485 8.51345 120.497 8.72776C120.505 8.94577 120.448 9.17855 120.318 9.42243C120.187 9.65891 120.032 9.888 119.86 10.1023C119.685 10.3092 119.558 10.457 119.485 10.5457C119.158 10.9411 118.913 11.2219 118.75 11.3882C118.587 11.5471 118.366 11.7097 118.097 11.8759C118.032 11.9166 117.954 11.9351 117.868 11.9351C117.725 11.9277 117.627 11.887 117.574 11.8168C117.53 11.7503 117.509 11.6949 117.509 11.6542C117.53 11.5656 117.611 11.4695 117.754 11.3586C117.991 11.233 118.166 11.1332 118.277 11.063C118.383 10.9854 118.481 10.9078 118.57 10.8265C118.656 10.7489 118.791 10.6196 118.979 10.4423C119.281 10.1282 119.534 9.8178 119.73 9.51111C119.926 9.20811 119.963 8.94207 119.844 8.71298C119.832 8.67603 119.783 8.65386 119.697 8.65386C119.489 8.68342 119.191 8.85339 118.799 9.15638C118.199 9.62935 117.672 10.2279 117.215 10.9448C116.844 11.536 116.693 12.0016 116.758 12.3341C116.831 12.6704 117.019 12.9069 117.313 13.0436C117.681 13.2025 118.117 13.2283 118.619 13.1175C119.13 13.0103 119.636 12.8219 120.138 12.5558C120.636 12.2898 121.106 11.9942 121.542 11.669C121.987 11.3439 122.33 11.0593 122.571 10.8118C122.722 10.7157 122.849 10.6898 122.947 10.7379C123.053 10.7896 123.053 10.8783 122.947 11.0039C122.62 11.2995 122.232 11.6062 121.787 11.9203C121.35 12.227 120.914 12.5041 120.481 12.748C120.044 12.9845 119.669 13.1581 119.354 13.2653Z" fill="white"/>
</svg>
