<svg xmlns="http://www.w3.org/2000/svg" xmlns:xlink="http://www.w3.org/1999/xlink" width="500" zoomAndPan="magnify" viewBox="0 0 375 374.999991" height="500" preserveAspectRatio="xMidYMid meet" version="1.0"><metadata><ContainsAiGeneratedContent>Yes</ContainsAiGeneratedContent></metadata><defs><g/></defs><rect x="-37.5" width="450" fill="#ffffff" y="-37.499999" height="449.999989" fill-opacity="1"/><rect x="-37.5" width="450" fill="#cac4b6" y="-37.499999" height="449.999989" fill-opacity="1"/><g fill="#ffffff" fill-opacity="1"><g transform="translate(81.954498, 199.515904)"><g><path d="M 20.59375 -21.078125 L 20.59375 -20.796875 C 20.40625 -20.796875 20.234375 -20.671875 20.078125 -20.421875 C 19.929688 -20.179688 19.859375 -19.863281 19.859375 -19.46875 L 19.859375 -1.59375 C 19.859375 -1.207031 19.929688 -0.890625 20.078125 -0.640625 C 20.234375 -0.398438 20.40625 -0.28125 20.59375 -0.28125 L 20.59375 0 L 17.59375 0 L 17.59375 -0.28125 C 17.78125 -0.28125 17.945312 -0.398438 18.09375 -0.640625 C 18.238281 -0.890625 18.3125 -1.207031 18.3125 -1.59375 L 18.3125 -19.21875 L 10.921875 -0.3125 C 10.816406 -0.0820312 10.695312 -0.09375 10.5625 -0.34375 L 2.984375 -16.015625 L 2.984375 -1.90625 C 2.984375 -1.601562 3.03125 -1.347656 3.125 -1.140625 C 3.21875 -0.941406 3.316406 -0.773438 3.421875 -0.640625 C 3.503906 -0.566406 3.582031 -0.5 3.65625 -0.4375 C 3.726562 -0.375 3.800781 -0.320312 3.875 -0.28125 L 3.875 0 L 1.625 0 L 1.625 -0.28125 C 1.71875 -0.320312 1.796875 -0.375 1.859375 -0.4375 C 1.929688 -0.5 2.003906 -0.566406 2.078125 -0.640625 C 2.191406 -0.773438 2.300781 -0.941406 2.40625 -1.140625 C 2.507812 -1.347656 2.5625 -1.601562 2.5625 -1.90625 L 2.5625 -16.328125 C 2.5625 -16.734375 2.515625 -17.03125 2.421875 -17.21875 L 1.234375 -19.578125 C 0.972656 -20.109375 0.695312 -20.441406 0.40625 -20.578125 C 0.113281 -20.722656 -0.113281 -20.796875 -0.28125 -20.796875 L -0.28125 -21.078125 L 1.828125 -21.078125 C 2.035156 -21.078125 2.175781 -21.039062 2.25 -20.96875 C 2.320312 -20.90625 2.378906 -20.835938 2.421875 -20.765625 L 11.125 -2.640625 C 11.195312 -2.503906 11.265625 -2.503906 11.328125 -2.640625 L 18.375 -20.625 C 18.40625 -20.695312 18.46875 -20.789062 18.5625 -20.90625 C 18.65625 -21.019531 18.789062 -21.078125 18.96875 -21.078125 Z M 20.59375 -21.078125 "/></g></g></g><g fill="#ffffff" fill-opacity="1"><g transform="translate(103.554027, 199.515904)"><g><path d="M 2.4375 -10.8125 C 2.4375 -9.539062 2.691406 -8.296875 3.203125 -7.078125 C 3.710938 -5.859375 4.410156 -4.753906 5.296875 -3.765625 C 6.179688 -2.785156 7.207031 -2.003906 8.375 -1.421875 C 9.550781 -0.847656 10.804688 -0.5625 12.140625 -0.5625 C 13.859375 -0.5625 15.410156 -0.90625 16.796875 -1.59375 C 18.179688 -2.289062 19.273438 -3.351562 20.078125 -4.78125 C 20.890625 -6.21875 21.296875 -8.039062 21.296875 -10.25 C 21.296875 -11.5625 21.046875 -12.828125 20.546875 -14.046875 C 20.054688 -15.265625 19.363281 -16.359375 18.46875 -17.328125 C 17.582031 -18.304688 16.550781 -19.082031 15.375 -19.65625 C 14.207031 -20.226562 12.957031 -20.515625 11.625 -20.515625 C 9.90625 -20.515625 8.351562 -20.164062 6.96875 -19.46875 C 5.582031 -18.769531 4.476562 -17.707031 3.65625 -16.28125 C 2.84375 -14.863281 2.4375 -13.039062 2.4375 -10.8125 Z M 22.75 -10.25 C 22.75 -8.90625 22.453125 -7.601562 21.859375 -6.34375 C 21.273438 -5.09375 20.460938 -3.960938 19.421875 -2.953125 C 18.390625 -1.953125 17.203125 -1.160156 15.859375 -0.578125 C 14.515625 -0.00390625 13.085938 0.28125 11.578125 0.28125 C 10.078125 0.28125 8.6875 0 7.40625 -0.5625 C 6.125 -1.125 5 -1.90625 4.03125 -2.90625 C 3.0625 -3.90625 2.3125 -5.078125 1.78125 -6.421875 C 1.25 -7.773438 0.984375 -9.238281 0.984375 -10.8125 C 0.984375 -12.164062 1.273438 -13.46875 1.859375 -14.71875 C 2.453125 -15.976562 3.269531 -17.109375 4.3125 -18.109375 C 5.351562 -19.109375 6.546875 -19.894531 7.890625 -20.46875 C 9.242188 -21.050781 10.675781 -21.34375 12.1875 -21.34375 C 13.6875 -21.34375 15.070312 -21.070312 16.34375 -20.53125 C 17.625 -19.988281 18.742188 -19.21875 19.703125 -18.21875 C 20.671875 -17.21875 21.421875 -16.039062 21.953125 -14.6875 C 22.484375 -13.34375 22.75 -11.863281 22.75 -10.25 Z M 22.75 -10.25 "/></g></g></g><g fill="#ffffff" fill-opacity="1"><g transform="translate(127.428665, 199.515904)"><g><path d="M 4.71875 -20.65625 L 3.6875 -20.65625 C 3.5 -20.65625 3.40625 -20.5625 3.40625 -20.375 L 3.40625 -0.671875 C 3.40625 -0.503906 3.488281 -0.421875 3.65625 -0.421875 L 7.609375 -0.421875 C 9.671875 -0.421875 11.414062 -0.828125 12.84375 -1.640625 C 14.28125 -2.453125 15.378906 -3.597656 16.140625 -5.078125 C 16.898438 -6.554688 17.28125 -8.28125 17.28125 -10.25 C 17.28125 -11.164062 17.125 -12.140625 16.8125 -13.171875 C 16.5 -14.203125 16.035156 -15.195312 15.421875 -16.15625 C 14.804688 -17.113281 14.007812 -17.914062 13.03125 -18.5625 C 12.1875 -19.164062 11.351562 -19.617188 10.53125 -19.921875 C 9.707031 -20.222656 8.832031 -20.421875 7.90625 -20.515625 C 6.976562 -20.609375 5.914062 -20.65625 4.71875 -20.65625 Z M 1.859375 -1.59375 L 1.859375 -19.46875 C 1.859375 -19.863281 1.78125 -20.179688 1.625 -20.421875 C 1.476562 -20.671875 1.3125 -20.796875 1.125 -20.796875 L 1.125 -21.078125 L 6.859375 -21.078125 C 8.578125 -21.078125 10.160156 -20.820312 11.609375 -20.3125 C 13.066406 -19.800781 14.332031 -19.066406 15.40625 -18.109375 C 16.488281 -17.160156 17.328125 -16.003906 17.921875 -14.640625 C 18.523438 -13.285156 18.828125 -11.75 18.828125 -10.03125 C 18.828125 -8.675781 18.566406 -7.394531 18.046875 -6.1875 C 17.535156 -4.976562 16.785156 -3.910156 15.796875 -2.984375 C 14.816406 -2.054688 13.640625 -1.328125 12.265625 -0.796875 C 10.890625 -0.265625 9.328125 0 7.578125 0 L 1.125 0 L 1.125 -0.28125 C 1.3125 -0.28125 1.476562 -0.398438 1.625 -0.640625 C 1.78125 -0.890625 1.859375 -1.207031 1.859375 -1.59375 Z M 1.859375 -1.59375 "/></g></g></g><g fill="#ffffff" fill-opacity="1"><g transform="translate(147.371008, 199.515904)"><g><path d="M 0.84375 -21.078125 L 7.1875 -21.078125 C 7.75 -21.078125 8.171875 -21.117188 8.453125 -21.203125 C 8.734375 -21.296875 8.96875 -21.34375 9.15625 -21.34375 C 9.226562 -21.34375 9.300781 -21.257812 9.375 -21.09375 C 9.457031 -20.925781 9.523438 -20.796875 9.578125 -20.703125 C 9.648438 -20.578125 9.757812 -20.421875 9.90625 -20.234375 C 10.0625 -20.046875 10.210938 -19.859375 10.359375 -19.671875 L 10.953125 -19.015625 L 10.765625 -18.828125 C 10.460938 -19.046875 10.109375 -19.300781 9.703125 -19.59375 C 9.304688 -19.882812 8.804688 -20.132812 8.203125 -20.34375 C 7.597656 -20.550781 6.832031 -20.65625 5.90625 -20.65625 L 3.265625 -20.65625 C 3.171875 -20.65625 3.125 -20.597656 3.125 -20.484375 L 3.125 -13.484375 L 9.46875 -13.484375 C 9.769531 -13.484375 10.019531 -13.515625 10.21875 -13.578125 C 10.425781 -13.648438 10.597656 -13.734375 10.734375 -13.828125 C 10.859375 -13.898438 10.96875 -14.019531 11.0625 -14.1875 L 11.34375 -14.1875 L 11.34375 -12.359375 L 11.0625 -12.359375 C 10.988281 -12.515625 10.878906 -12.628906 10.734375 -12.703125 C 10.597656 -12.796875 10.425781 -12.878906 10.21875 -12.953125 C 10.019531 -13.023438 9.769531 -13.0625 9.46875 -13.0625 L 3.125 -13.0625 L 3.125 -0.59375 C 3.125 -0.476562 3.175781 -0.421875 3.28125 -0.421875 L 6.625 -0.421875 C 7.601562 -0.421875 8.378906 -0.519531 8.953125 -0.71875 C 9.523438 -0.914062 9.984375 -1.15625 10.328125 -1.4375 C 10.671875 -1.726562 10.992188 -2.023438 11.296875 -2.328125 L 11.484375 -2.140625 L 11.09375 -1.59375 C 10.976562 -1.425781 10.847656 -1.238281 10.703125 -1.03125 C 10.566406 -0.832031 10.445312 -0.628906 10.34375 -0.421875 C 10.226562 -0.210938 10.140625 -0.046875 10.078125 0.078125 C 10.023438 0.210938 9.960938 0.28125 9.890625 0.28125 C 9.816406 0.28125 9.6875 0.234375 9.5 0.140625 C 9.3125 0.046875 8.953125 0 8.421875 0 L 0.84375 0 L 0.84375 -0.28125 C 1.03125 -0.28125 1.195312 -0.398438 1.34375 -0.640625 C 1.5 -0.890625 1.578125 -1.207031 1.578125 -1.59375 L 1.578125 -19.46875 C 1.578125 -19.863281 1.5 -20.179688 1.34375 -20.421875 C 1.195312 -20.671875 1.03125 -20.796875 0.84375 -20.796875 Z M 0.84375 -21.078125 "/></g></g></g><g fill="#ffffff" fill-opacity="1"><g transform="translate(159.982436, 199.515904)"><g><path d="M 4.890625 -20.65625 L 3.265625 -20.65625 L 3.265625 -13.40625 L 6.0625 -13.40625 C 7.414062 -13.40625 8.476562 -13.6875 9.25 -14.25 C 10.03125 -14.820312 10.421875 -15.679688 10.421875 -16.828125 C 10.421875 -17.148438 10.34375 -17.523438 10.1875 -17.953125 C 10.039062 -18.378906 9.769531 -18.796875 9.375 -19.203125 C 8.988281 -19.617188 8.429688 -19.960938 7.703125 -20.234375 C 6.984375 -20.515625 6.046875 -20.65625 4.890625 -20.65625 Z M 3.984375 0 L 0.984375 0 L 0.984375 -0.28125 C 1.171875 -0.28125 1.335938 -0.398438 1.484375 -0.640625 C 1.640625 -0.890625 1.71875 -1.207031 1.71875 -1.59375 L 1.71875 -19.46875 C 1.71875 -19.863281 1.640625 -20.179688 1.484375 -20.421875 C 1.335938 -20.671875 1.171875 -20.796875 0.984375 -20.796875 L 0.984375 -21.078125 L 5.484375 -21.078125 C 6.710938 -21.078125 7.816406 -20.921875 8.796875 -20.609375 C 9.785156 -20.296875 10.5625 -19.828125 11.125 -19.203125 C 11.6875 -18.578125 11.96875 -17.765625 11.96875 -16.765625 C 11.96875 -15.941406 11.722656 -15.242188 11.234375 -14.671875 C 10.742188 -14.109375 10.085938 -13.6875 9.265625 -13.40625 C 8.441406 -13.125 7.515625 -12.984375 6.484375 -12.984375 L 5.453125 -12.984375 C 5.316406 -12.984375 5.285156 -12.914062 5.359375 -12.78125 L 13.40625 -1.65625 C 13.8125 -1.113281 14.125 -0.75 14.34375 -0.5625 C 14.570312 -0.375 14.734375 -0.28125 14.828125 -0.28125 L 14.828125 0 L 11.609375 0 L 11.609375 -0.28125 C 11.804688 -0.28125 11.925781 -0.382812 11.96875 -0.59375 C 12.019531 -0.8125 11.945312 -1.054688 11.75 -1.328125 L 3.421875 -12.859375 C 3.316406 -13.015625 3.265625 -13.007812 3.265625 -12.84375 L 3.265625 -1.59375 C 3.265625 -1.207031 3.335938 -0.890625 3.484375 -0.640625 C 3.628906 -0.398438 3.796875 -0.28125 3.984375 -0.28125 Z M 3.984375 0 "/></g></g></g><g fill="#ffffff" fill-opacity="1"><g transform="translate(174.812805, 199.515904)"><g><path d="M 17.28125 -19.1875 L 17.28125 0.28125 C 17.28125 0.394531 17.238281 0.457031 17.15625 0.46875 C 17.070312 0.476562 16.984375 0.414062 16.890625 0.28125 L 3.0625 -17.359375 L 3.0625 -1.828125 C 3.0625 -1.523438 3.101562 -1.273438 3.1875 -1.078125 C 3.269531 -0.878906 3.367188 -0.726562 3.484375 -0.625 C 3.628906 -0.46875 3.78125 -0.351562 3.9375 -0.28125 L 3.9375 0 L 1.6875 0 L 1.6875 -0.28125 C 1.875 -0.375 2.03125 -0.488281 2.15625 -0.625 C 2.269531 -0.75 2.378906 -0.90625 2.484375 -1.09375 C 2.585938 -1.28125 2.640625 -1.523438 2.640625 -1.828125 L 2.640625 -17.609375 C 2.640625 -17.890625 2.59375 -18.078125 2.5 -18.171875 L 1.015625 -19.890625 C 0.804688 -20.117188 0.570312 -20.328125 0.3125 -20.515625 C 0.0625 -20.703125 -0.132812 -20.796875 -0.28125 -20.796875 L -0.28125 -21.078125 L 1.71875 -21.078125 C 1.863281 -21.078125 1.960938 -21.066406 2.015625 -21.046875 C 2.078125 -21.023438 2.15625 -20.96875 2.25 -20.875 L 16.859375 -2.28125 L 16.859375 -19.1875 C 16.859375 -19.445312 16.804688 -19.679688 16.703125 -19.890625 C 16.597656 -20.097656 16.488281 -20.265625 16.375 -20.390625 C 16.300781 -20.472656 16.226562 -20.546875 16.15625 -20.609375 C 16.09375 -20.671875 16.015625 -20.734375 15.921875 -20.796875 L 15.921875 -21.078125 L 18.171875 -21.078125 L 18.171875 -20.796875 C 18.097656 -20.734375 18.023438 -20.671875 17.953125 -20.609375 C 17.878906 -20.546875 17.804688 -20.472656 17.734375 -20.390625 C 17.617188 -20.265625 17.515625 -20.097656 17.421875 -19.890625 C 17.328125 -19.679688 17.28125 -19.445312 17.28125 -19.1875 Z M 17.28125 -19.1875 "/></g></g></g><g fill="#ffffff" fill-opacity="1"><g transform="translate(194.109135, 199.515904)"><g/></g></g><g fill="#ffffff" fill-opacity="1"><g transform="translate(198.322308, 199.515904)"><g><path d="M 20.59375 -21.078125 L 20.59375 -20.796875 C 20.40625 -20.796875 20.234375 -20.671875 20.078125 -20.421875 C 19.929688 -20.179688 19.859375 -19.863281 19.859375 -19.46875 L 19.859375 -1.59375 C 19.859375 -1.207031 19.929688 -0.890625 20.078125 -0.640625 C 20.234375 -0.398438 20.40625 -0.28125 20.59375 -0.28125 L 20.59375 0 L 17.59375 0 L 17.59375 -0.28125 C 17.78125 -0.28125 17.945312 -0.398438 18.09375 -0.640625 C 18.238281 -0.890625 18.3125 -1.207031 18.3125 -1.59375 L 18.3125 -19.21875 L 10.921875 -0.3125 C 10.816406 -0.0820312 10.695312 -0.09375 10.5625 -0.34375 L 2.984375 -16.015625 L 2.984375 -1.90625 C 2.984375 -1.601562 3.03125 -1.347656 3.125 -1.140625 C 3.21875 -0.941406 3.316406 -0.773438 3.421875 -0.640625 C 3.503906 -0.566406 3.582031 -0.5 3.65625 -0.4375 C 3.726562 -0.375 3.800781 -0.320312 3.875 -0.28125 L 3.875 0 L 1.625 0 L 1.625 -0.28125 C 1.71875 -0.320312 1.796875 -0.375 1.859375 -0.4375 C 1.929688 -0.5 2.003906 -0.566406 2.078125 -0.640625 C 2.191406 -0.773438 2.300781 -0.941406 2.40625 -1.140625 C 2.507812 -1.347656 2.5625 -1.601562 2.5625 -1.90625 L 2.5625 -16.328125 C 2.5625 -16.734375 2.515625 -17.03125 2.421875 -17.21875 L 1.234375 -19.578125 C 0.972656 -20.109375 0.695312 -20.441406 0.40625 -20.578125 C 0.113281 -20.722656 -0.113281 -20.796875 -0.28125 -20.796875 L -0.28125 -21.078125 L 1.828125 -21.078125 C 2.035156 -21.078125 2.175781 -21.039062 2.25 -20.96875 C 2.320312 -20.90625 2.378906 -20.835938 2.421875 -20.765625 L 11.125 -2.640625 C 11.195312 -2.503906 11.265625 -2.503906 11.328125 -2.640625 L 18.375 -20.625 C 18.40625 -20.695312 18.46875 -20.789062 18.5625 -20.90625 C 18.65625 -21.019531 18.789062 -21.078125 18.96875 -21.078125 Z M 20.59375 -21.078125 "/></g></g></g><g fill="#ffffff" fill-opacity="1"><g transform="translate(219.921836, 199.515904)"><g><path d="M 1.0625 -1.328125 L 6.625 -14.390625 C 6.6875 -14.492188 6.6875 -14.613281 6.625 -14.75 L 4.609375 -19.578125 C 4.421875 -20.015625 4.21875 -20.328125 4 -20.515625 C 3.789062 -20.703125 3.617188 -20.796875 3.484375 -20.796875 L 3.484375 -21.078125 L 5.359375 -21.078125 C 5.546875 -21.078125 5.671875 -21 5.734375 -20.84375 L 13.96875 -1.1875 C 14.164062 -0.769531 14.335938 -0.515625 14.484375 -0.421875 C 14.640625 -0.328125 14.773438 -0.28125 14.890625 -0.28125 L 14.890625 0 L 11.9375 0 L 11.9375 -0.28125 C 12.007812 -0.28125 12.101562 -0.296875 12.21875 -0.328125 C 12.332031 -0.367188 12.410156 -0.460938 12.453125 -0.609375 C 12.503906 -0.765625 12.457031 -1.003906 12.3125 -1.328125 L 10.84375 -4.578125 L 2.921875 -4.578125 L 1.59375 -1.296875 C 1.445312 -0.921875 1.472656 -0.65625 1.671875 -0.5 C 1.867188 -0.351562 2.023438 -0.28125 2.140625 -0.28125 L 2.140625 0 L 0 0 L 0 -0.28125 C 0.113281 -0.28125 0.269531 -0.359375 0.46875 -0.515625 C 0.675781 -0.679688 0.875 -0.953125 1.0625 -1.328125 Z M 6.9375 -13.9375 L 3.234375 -5.28125 L 10.59375 -5.28125 Z M 6.9375 -13.9375 "/></g></g></g><g fill="#ffffff" fill-opacity="1"><g transform="translate(235.510564, 199.515904)"><g><path d="M 4.890625 -20.65625 L 3.265625 -20.65625 L 3.265625 -13.40625 L 6.0625 -13.40625 C 7.414062 -13.40625 8.476562 -13.6875 9.25 -14.25 C 10.03125 -14.820312 10.421875 -15.679688 10.421875 -16.828125 C 10.421875 -17.148438 10.34375 -17.523438 10.1875 -17.953125 C 10.039062 -18.378906 9.769531 -18.796875 9.375 -19.203125 C 8.988281 -19.617188 8.429688 -19.960938 7.703125 -20.234375 C 6.984375 -20.515625 6.046875 -20.65625 4.890625 -20.65625 Z M 3.984375 0 L 0.984375 0 L 0.984375 -0.28125 C 1.171875 -0.28125 1.335938 -0.398438 1.484375 -0.640625 C 1.640625 -0.890625 1.71875 -1.207031 1.71875 -1.59375 L 1.71875 -19.46875 C 1.71875 -19.863281 1.640625 -20.179688 1.484375 -20.421875 C 1.335938 -20.671875 1.171875 -20.796875 0.984375 -20.796875 L 0.984375 -21.078125 L 5.484375 -21.078125 C 6.710938 -21.078125 7.816406 -20.921875 8.796875 -20.609375 C 9.785156 -20.296875 10.5625 -19.828125 11.125 -19.203125 C 11.6875 -18.578125 11.96875 -17.765625 11.96875 -16.765625 C 11.96875 -15.941406 11.722656 -15.242188 11.234375 -14.671875 C 10.742188 -14.109375 10.085938 -13.6875 9.265625 -13.40625 C 8.441406 -13.125 7.515625 -12.984375 6.484375 -12.984375 L 5.453125 -12.984375 C 5.316406 -12.984375 5.285156 -12.914062 5.359375 -12.78125 L 13.40625 -1.65625 C 13.8125 -1.113281 14.125 -0.75 14.34375 -0.5625 C 14.570312 -0.375 14.734375 -0.28125 14.828125 -0.28125 L 14.828125 0 L 11.609375 0 L 11.609375 -0.28125 C 11.804688 -0.28125 11.925781 -0.382812 11.96875 -0.59375 C 12.019531 -0.8125 11.945312 -1.054688 11.75 -1.328125 L 3.421875 -12.859375 C 3.316406 -13.015625 3.265625 -13.007812 3.265625 -12.84375 L 3.265625 -1.59375 C 3.265625 -1.207031 3.335938 -0.890625 3.484375 -0.640625 C 3.628906 -0.398438 3.796875 -0.28125 3.984375 -0.28125 Z M 3.984375 0 "/></g></g></g><g fill="#ffffff" fill-opacity="1"><g transform="translate(250.340941, 199.515904)"><g><path d="M 16.890625 -18.453125 L 9.609375 0.359375 C 9.554688 0.492188 9.484375 0.5625 9.390625 0.5625 C 9.296875 0.5625 9.226562 0.488281 9.1875 0.34375 L 1.4375 -19.8125 C 1.175781 -20.289062 0.957031 -20.570312 0.78125 -20.65625 C 0.613281 -20.75 0.492188 -20.796875 0.421875 -20.796875 L 0.421875 -21.078125 L 3.515625 -21.078125 L 3.515625 -20.796875 C 3.359375 -20.796875 3.222656 -20.671875 3.109375 -20.421875 C 3.003906 -20.179688 3.046875 -19.851562 3.234375 -19.4375 L 9.921875 -2.046875 C 9.972656 -1.921875 10.023438 -1.921875 10.078125 -2.046875 L 16.578125 -18.875 C 16.703125 -19.21875 16.75 -19.507812 16.71875 -19.75 C 16.695312 -19.988281 16.640625 -20.1875 16.546875 -20.34375 C 16.429688 -20.53125 16.28125 -20.679688 16.09375 -20.796875 L 16.09375 -21.078125 L 18.421875 -21.078125 L 18.421875 -20.796875 C 18.160156 -20.617188 17.890625 -20.316406 17.609375 -19.890625 C 17.328125 -19.472656 17.085938 -18.992188 16.890625 -18.453125 Z M 16.890625 -18.453125 "/></g></g></g><g fill="#ffffff" fill-opacity="1"><g transform="translate(269.047427, 199.515904)"><g><path d="M 0.84375 -21.078125 L 7.1875 -21.078125 C 7.75 -21.078125 8.171875 -21.117188 8.453125 -21.203125 C 8.734375 -21.296875 8.96875 -21.34375 9.15625 -21.34375 C 9.226562 -21.34375 9.300781 -21.257812 9.375 -21.09375 C 9.457031 -20.925781 9.523438 -20.796875 9.578125 -20.703125 C 9.648438 -20.578125 9.757812 -20.421875 9.90625 -20.234375 C 10.0625 -20.046875 10.210938 -19.859375 10.359375 -19.671875 L 10.953125 -19.015625 L 10.765625 -18.828125 C 10.460938 -19.046875 10.109375 -19.300781 9.703125 -19.59375 C 9.304688 -19.882812 8.804688 -20.132812 8.203125 -20.34375 C 7.597656 -20.550781 6.832031 -20.65625 5.90625 -20.65625 L 3.265625 -20.65625 C 3.171875 -20.65625 3.125 -20.597656 3.125 -20.484375 L 3.125 -13.484375 L 9.46875 -13.484375 C 9.769531 -13.484375 10.019531 -13.515625 10.21875 -13.578125 C 10.425781 -13.648438 10.597656 -13.734375 10.734375 -13.828125 C 10.859375 -13.898438 10.96875 -14.019531 11.0625 -14.1875 L 11.34375 -14.1875 L 11.34375 -12.359375 L 11.0625 -12.359375 C 10.988281 -12.515625 10.878906 -12.628906 10.734375 -12.703125 C 10.597656 -12.796875 10.425781 -12.878906 10.21875 -12.953125 C 10.019531 -13.023438 9.769531 -13.0625 9.46875 -13.0625 L 3.125 -13.0625 L 3.125 -0.59375 C 3.125 -0.476562 3.175781 -0.421875 3.28125 -0.421875 L 6.625 -0.421875 C 7.601562 -0.421875 8.378906 -0.519531 8.953125 -0.71875 C 9.523438 -0.914062 9.984375 -1.15625 10.328125 -1.4375 C 10.671875 -1.726562 10.992188 -2.023438 11.296875 -2.328125 L 11.484375 -2.140625 L 11.09375 -1.59375 C 10.976562 -1.425781 10.847656 -1.238281 10.703125 -1.03125 C 10.566406 -0.832031 10.445312 -0.628906 10.34375 -0.421875 C 10.226562 -0.210938 10.140625 -0.046875 10.078125 0.078125 C 10.023438 0.210938 9.960938 0.28125 9.890625 0.28125 C 9.816406 0.28125 9.6875 0.234375 9.5 0.140625 C 9.3125 0.046875 8.953125 0 8.421875 0 L 0.84375 0 L 0.84375 -0.28125 C 1.03125 -0.28125 1.195312 -0.398438 1.34375 -0.640625 C 1.5 -0.890625 1.578125 -1.207031 1.578125 -1.59375 L 1.578125 -19.46875 C 1.578125 -19.863281 1.5 -20.179688 1.34375 -20.421875 C 1.195312 -20.671875 1.03125 -20.796875 0.84375 -20.796875 Z M 0.84375 -21.078125 "/></g></g></g><g fill="#ffffff" fill-opacity="1"><g transform="translate(281.658848, 199.515904)"><g><path d="M 0.984375 -21.078125 L 3.984375 -21.078125 L 3.984375 -20.796875 C 3.796875 -20.796875 3.628906 -20.671875 3.484375 -20.421875 C 3.335938 -20.179688 3.265625 -19.863281 3.265625 -19.46875 L 3.265625 -0.59375 C 3.265625 -0.476562 3.316406 -0.421875 3.421875 -0.421875 L 10.53125 -0.421875 L 10.53125 -0.140625 C 10.320312 -0.140625 10.125 -0.101562 9.9375 -0.03125 C 9.757812 0.03125 9.566406 0.125 9.359375 0.25 C 9.148438 0.382812 8.984375 0.519531 8.859375 0.65625 C 8.742188 0.800781 8.640625 0.875 8.546875 0.875 C 8.460938 0.875 8.378906 0.800781 8.296875 0.65625 C 8.210938 0.519531 8.0625 0.375 7.84375 0.21875 C 7.632812 0.0703125 7.296875 0 6.828125 0 L 0.984375 0 L 0.984375 -0.28125 C 1.171875 -0.28125 1.335938 -0.398438 1.484375 -0.640625 C 1.640625 -0.890625 1.71875 -1.207031 1.71875 -1.59375 L 1.71875 -19.46875 C 1.71875 -19.863281 1.640625 -20.179688 1.484375 -20.421875 C 1.335938 -20.671875 1.171875 -20.796875 0.984375 -20.796875 Z M 0.984375 -21.078125 "/></g></g></g><g fill="#ffffff" fill-opacity="1"><g transform="translate(176.330897, 162.973039)"><g><path d="M 1.171875 -7.78125 C 1.398438 -8.394531 1.65625 -9.007812 1.9375 -9.625 C 2.21875 -10.25 2.503906 -10.859375 2.796875 -11.453125 C 2.410156 -11.398438 1.957031 -11.34375 1.4375 -11.28125 C 0.914062 -11.21875 0.410156 -11.148438 -0.078125 -11.078125 C -0.566406 -11.015625 -0.96875 -10.960938 -1.28125 -10.921875 C -1.601562 -10.878906 -1.773438 -10.851562 -1.796875 -10.84375 C -1.796875 -10.84375 -1.765625 -10.816406 -1.703125 -10.765625 C -1.578125 -10.671875 -1.546875 -10.5625 -1.609375 -10.4375 C -1.679688 -10.3125 -1.804688 -10.257812 -1.984375 -10.28125 C -2.078125 -10.28125 -2.171875 -10.285156 -2.265625 -10.296875 C -2.335938 -10.316406 -2.410156 -10.328125 -2.484375 -10.328125 C -2.566406 -10.328125 -2.71875 -10.3125 -2.9375 -10.28125 C -3.40625 -10.207031 -3.738281 -10.160156 -3.9375 -10.140625 C -4.144531 -10.128906 -4.332031 -10.113281 -4.5 -10.09375 C -4.695312 -10.09375 -4.847656 -10.097656 -4.953125 -10.109375 C -5.054688 -10.128906 -5.144531 -10.171875 -5.21875 -10.234375 C -5.300781 -10.273438 -5.34375 -10.335938 -5.34375 -10.421875 C -5.34375 -10.554688 -5.25 -10.671875 -5.0625 -10.765625 C -4.332031 -11.078125 -1.628906 -11.472656 3.046875 -11.953125 C 3.535156 -12.921875 3.976562 -13.722656 4.375 -14.359375 C 4.5 -14.554688 4.628906 -14.753906 4.765625 -14.953125 C 4.910156 -15.148438 5.0625 -15.34375 5.21875 -15.53125 C 5.4375 -15.8125 5.617188 -15.957031 5.765625 -15.96875 C 5.941406 -16 6.070312 -15.9375 6.15625 -15.78125 C 6.1875 -15.707031 6.175781 -15.59375 6.125 -15.4375 C 5.957031 -15.101562 5.789062 -14.785156 5.625 -14.484375 C 5.570312 -14.390625 5.46875 -14.21875 5.3125 -13.96875 C 5.15625 -13.726562 5 -13.484375 4.84375 -13.234375 C 4.6875 -12.992188 4.539062 -12.78125 4.40625 -12.59375 C 4.269531 -12.40625 4.140625 -12.222656 4.015625 -12.046875 C 5.578125 -12.203125 7.140625 -12.34375 8.703125 -12.46875 C 10.265625 -12.59375 11.835938 -12.695312 13.421875 -12.78125 C 13.785156 -12.789062 14.242188 -12.800781 14.796875 -12.8125 C 15.347656 -12.832031 15.914062 -12.847656 16.5 -12.859375 C 17.09375 -12.878906 17.628906 -12.894531 18.109375 -12.90625 C 18.597656 -12.925781 18.945312 -12.929688 19.15625 -12.921875 C 19.332031 -12.921875 19.582031 -12.921875 19.90625 -12.921875 C 20.238281 -12.921875 20.539062 -12.921875 20.8125 -12.921875 C 21.09375 -12.921875 21.347656 -12.921875 21.578125 -12.921875 C 21.816406 -12.921875 21.96875 -12.921875 22.03125 -12.921875 C 22.257812 -12.898438 22.421875 -12.828125 22.515625 -12.703125 C 22.566406 -12.640625 22.578125 -12.570312 22.546875 -12.5 C 22.523438 -12.4375 22.484375 -12.390625 22.421875 -12.359375 C 22.296875 -12.273438 22.164062 -12.28125 22.03125 -12.375 C 21.976562 -12.40625 21.914062 -12.425781 21.84375 -12.4375 C 21.78125 -12.445312 21.632812 -12.457031 21.40625 -12.46875 C 20.625 -12.519531 19.691406 -12.546875 18.609375 -12.546875 C 17.535156 -12.554688 16.367188 -12.535156 15.109375 -12.484375 C 13.859375 -12.441406 12.59375 -12.375 11.3125 -12.28125 C 10.019531 -12.207031 8.734375 -12.101562 7.453125 -11.96875 C 6.179688 -11.832031 4.910156 -11.695312 3.640625 -11.5625 C 3.460938 -11.332031 3.289062 -11.078125 3.125 -10.796875 C 2.957031 -10.515625 2.765625 -10.15625 2.546875 -9.71875 C 2.171875 -8.925781 1.804688 -8.097656 1.453125 -7.234375 C 1.109375 -6.367188 0.800781 -5.539062 0.53125 -4.75 C 0.269531 -3.957031 0.078125 -3.269531 -0.046875 -2.6875 C -0.335938 -1.34375 -0.34375 -0.316406 -0.0625 0.390625 C 0.226562 1.148438 0.757812 1.460938 1.53125 1.328125 C 1.863281 1.265625 2.265625 1.128906 2.734375 0.921875 C 3.210938 0.722656 3.75 0.414062 4.34375 0 C 4.644531 -0.21875 5.015625 -0.507812 5.453125 -0.875 C 5.898438 -1.238281 6.351562 -1.640625 6.8125 -2.078125 C 7.269531 -2.515625 7.691406 -2.9375 8.078125 -3.34375 C 8.460938 -3.757812 8.742188 -4.113281 8.921875 -4.40625 C 9.109375 -4.75 9.265625 -4.882812 9.390625 -4.8125 C 9.515625 -4.738281 9.515625 -4.632812 9.390625 -4.5 C 9.378906 -4.46875 9.328125 -4.390625 9.234375 -4.265625 C 9.140625 -4.140625 9.035156 -4 8.921875 -3.84375 C 8.691406 -3.53125 8.488281 -3.269531 8.3125 -3.0625 C 8.144531 -2.851562 7.929688 -2.625 7.671875 -2.375 C 7.253906 -1.9375 6.769531 -1.488281 6.21875 -1.03125 C 5.675781 -0.570312 5.132812 -0.144531 4.59375 0.25 C 4.050781 0.644531 3.578125 0.953125 3.171875 1.171875 C 2.671875 1.460938 2.203125 1.65625 1.765625 1.75 C 1.367188 1.84375 1.003906 1.847656 0.671875 1.765625 C -0.0976562 1.554688 -0.554688 0.890625 -0.703125 -0.234375 C -0.710938 -0.335938 -0.710938 -0.507812 -0.703125 -0.75 C -0.703125 -1 -0.691406 -1.253906 -0.671875 -1.515625 C -0.660156 -1.773438 -0.628906 -2 -0.578125 -2.1875 C -0.316406 -3.695312 0.265625 -5.5625 1.171875 -7.78125 Z M 1.171875 -7.78125 "/></g></g></g><g fill="#ffffff" fill-opacity="1"><g transform="translate(184.816379, 162.973039)"><g><path d="M -0.84375 1.484375 C -0.875 1.460938 -0.890625 1.421875 -0.890625 1.359375 C -0.898438 1.296875 -0.890625 1.175781 -0.859375 1 C -0.703125 0.113281 -0.445312 -0.832031 -0.09375 -1.84375 C 0.25 -2.863281 0.648438 -3.898438 1.109375 -4.953125 C 1.566406 -6.015625 2.039062 -7.054688 2.53125 -8.078125 C 3.019531 -9.109375 3.488281 -10.082031 3.9375 -11 C 4.8125 -12.800781 5.535156 -13.859375 6.109375 -14.171875 C 6.453125 -14.378906 6.734375 -14.347656 6.953125 -14.078125 C 7.015625 -14.003906 7.050781 -13.875 7.0625 -13.6875 C 7.113281 -13.269531 6.984375 -12.675781 6.671875 -11.90625 C 6.367188 -11.144531 5.921875 -10.3125 5.328125 -9.40625 C 4.742188 -8.5 4.046875 -7.601562 3.234375 -6.71875 C 3.046875 -6.507812 2.910156 -6.40625 2.828125 -6.40625 C 2.742188 -6.40625 2.675781 -6.4375 2.625 -6.5 C 2.582031 -6.5625 2.53125 -6.59375 2.46875 -6.59375 C 2.4375 -6.582031 2.378906 -6.5 2.296875 -6.34375 C 2.222656 -6.1875 2.148438 -6.015625 2.078125 -5.828125 C 1.929688 -5.515625 1.773438 -5.148438 1.609375 -4.734375 C 1.453125 -4.328125 1.304688 -3.941406 1.171875 -3.578125 C 1.046875 -3.222656 0.953125 -2.972656 0.890625 -2.828125 L 0.84375 -2.6875 L 0.90625 -2.78125 C 1.28125 -3.300781 1.597656 -3.707031 1.859375 -4 C 2.128906 -4.300781 2.425781 -4.582031 2.75 -4.84375 C 3.375 -5.34375 3.859375 -5.546875 4.203125 -5.453125 C 4.554688 -5.359375 4.707031 -4.992188 4.65625 -4.359375 C 4.644531 -4.171875 4.609375 -3.957031 4.546875 -3.71875 C 4.492188 -3.488281 4.4375 -3.25 4.375 -3 C 4.320312 -2.769531 4.265625 -2.535156 4.203125 -2.296875 C 4.148438 -2.066406 4.117188 -1.859375 4.109375 -1.671875 C 4.085938 -1.304688 4.207031 -1.125 4.46875 -1.125 C 4.78125 -1.125 5.113281 -1.234375 5.46875 -1.453125 C 5.832031 -1.679688 6.1875 -1.960938 6.53125 -2.296875 C 6.875 -2.628906 7.179688 -2.96875 7.453125 -3.3125 C 7.734375 -3.65625 7.957031 -3.941406 8.125 -4.171875 C 8.300781 -4.398438 8.390625 -4.515625 8.390625 -4.515625 C 8.453125 -4.628906 8.546875 -4.65625 8.671875 -4.59375 C 8.773438 -4.53125 8.800781 -4.445312 8.75 -4.34375 C 8.75 -4.34375 8.65625 -4.21875 8.46875 -3.96875 C 8.289062 -3.726562 8.050781 -3.425781 7.75 -3.0625 C 7.445312 -2.695312 7.113281 -2.335938 6.75 -1.984375 C 6.382812 -1.640625 6.003906 -1.347656 5.609375 -1.109375 C 5.210938 -0.867188 4.828125 -0.753906 4.453125 -0.765625 C 4.160156 -0.765625 3.957031 -0.847656 3.84375 -1.015625 C 3.738281 -1.191406 3.691406 -1.410156 3.703125 -1.671875 C 3.703125 -1.878906 3.726562 -2.109375 3.78125 -2.359375 C 3.84375 -2.609375 3.910156 -2.851562 3.984375 -3.09375 C 4.046875 -3.332031 4.097656 -3.5625 4.140625 -3.78125 C 4.191406 -4 4.226562 -4.195312 4.25 -4.375 C 4.28125 -4.707031 4.234375 -4.894531 4.109375 -4.9375 C 3.984375 -4.988281 3.828125 -4.953125 3.640625 -4.828125 C 3.453125 -4.710938 3.253906 -4.578125 3.046875 -4.421875 C 2.191406 -3.753906 1.472656 -2.941406 0.890625 -1.984375 C 0.304688 -1.035156 -0.113281 -0.078125 -0.375 0.890625 C -0.414062 1.023438 -0.457031 1.148438 -0.5 1.265625 C -0.539062 1.390625 -0.5625 1.457031 -0.5625 1.46875 C -0.59375 1.5 -0.640625 1.515625 -0.703125 1.515625 C -0.765625 1.523438 -0.8125 1.515625 -0.84375 1.484375 Z M 2.59375 -7.140625 C 2.695312 -7.253906 2.789062 -7.320312 2.875 -7.34375 C 2.957031 -7.375 3.046875 -7.40625 3.140625 -7.4375 C 3.234375 -7.476562 3.359375 -7.585938 3.515625 -7.765625 C 3.828125 -8.109375 4.15625 -8.53125 4.5 -9.03125 C 4.851562 -9.539062 5.175781 -10.078125 5.46875 -10.640625 C 5.769531 -11.210938 6.007812 -11.753906 6.1875 -12.265625 C 6.363281 -12.773438 6.445312 -13.203125 6.4375 -13.546875 C 6.4375 -13.617188 6.421875 -13.660156 6.390625 -13.671875 C 6.367188 -13.679688 6.320312 -13.65625 6.25 -13.59375 C 5.976562 -13.382812 5.640625 -12.96875 5.234375 -12.34375 C 4.835938 -11.71875 4.421875 -10.96875 3.984375 -10.09375 C 3.878906 -9.875 3.742188 -9.597656 3.578125 -9.265625 C 3.410156 -8.941406 3.253906 -8.617188 3.109375 -8.296875 C 2.960938 -7.972656 2.832031 -7.703125 2.71875 -7.484375 C 2.613281 -7.265625 2.570312 -7.148438 2.59375 -7.140625 Z M 2.59375 -7.140625 "/></g></g></g><g fill="#ffffff" fill-opacity="1"><g transform="translate(192.788999, 162.973039)"><g><path d="M 3.09375 -1.953125 C 2.351562 -1.691406 1.722656 -1.628906 1.203125 -1.765625 C 0.679688 -1.910156 0.351562 -2.21875 0.21875 -2.6875 C 0.0820312 -3.164062 0.210938 -3.773438 0.609375 -4.515625 C 0.960938 -5.160156 1.382812 -5.75 1.875 -6.28125 C 2.363281 -6.820312 2.785156 -7.144531 3.140625 -7.25 C 3.378906 -7.320312 3.59375 -7.320312 3.78125 -7.25 C 4.039062 -7.144531 4.175781 -6.976562 4.1875 -6.75 C 4.195312 -6.519531 4.140625 -6.273438 4.015625 -6.015625 C 3.890625 -5.765625 3.742188 -5.523438 3.578125 -5.296875 C 3.410156 -5.078125 3.289062 -4.921875 3.21875 -4.828125 C 2.90625 -4.410156 2.671875 -4.113281 2.515625 -3.9375 C 2.359375 -3.769531 2.148438 -3.597656 1.890625 -3.421875 C 1.828125 -3.378906 1.753906 -3.359375 1.671875 -3.359375 C 1.535156 -3.367188 1.441406 -3.410156 1.390625 -3.484375 C 1.347656 -3.554688 1.328125 -3.613281 1.328125 -3.65625 C 1.347656 -3.75 1.425781 -3.851562 1.5625 -3.96875 C 1.789062 -4.101562 1.957031 -4.207031 2.0625 -4.28125 C 2.164062 -4.363281 2.257812 -4.445312 2.34375 -4.53125 C 2.425781 -4.613281 2.554688 -4.75 2.734375 -4.9375 C 3.023438 -5.269531 3.265625 -5.597656 3.453125 -5.921875 C 3.640625 -6.242188 3.675781 -6.523438 3.5625 -6.765625 C 3.550781 -6.804688 3.503906 -6.828125 3.421875 -6.828125 C 3.222656 -6.796875 2.9375 -6.617188 2.5625 -6.296875 C 1.988281 -5.796875 1.484375 -5.164062 1.046875 -4.40625 C 0.691406 -3.78125 0.546875 -3.289062 0.609375 -2.9375 C 0.679688 -2.582031 0.859375 -2.332031 1.140625 -2.1875 C 1.492188 -2.019531 1.910156 -1.992188 2.390625 -2.109375 C 2.878906 -2.222656 3.363281 -2.421875 3.84375 -2.703125 C 4.320312 -2.984375 4.769531 -3.296875 5.1875 -3.640625 C 5.613281 -3.984375 5.941406 -4.285156 6.171875 -4.546875 C 6.316406 -4.648438 6.4375 -4.675781 6.53125 -4.625 C 6.632812 -4.570312 6.632812 -4.476562 6.53125 -4.34375 C 6.21875 -4.03125 5.847656 -3.707031 5.421875 -3.375 C 5.003906 -3.050781 4.585938 -2.757812 4.171875 -2.5 C 3.753906 -2.25 3.394531 -2.066406 3.09375 -1.953125 Z M 3.09375 -1.953125 "/></g></g></g></svg>